<svg width="85" height="15" viewBox="0 0 85 15" fill="none" xmlns="http://www.w3.org/2000/svg">
<rect opacity="0.35" x="54.1526" y="0.63603" width="26.5492" height="13.0639" rx="2.7392" stroke="#EBEBF5" stroke-opacity="0.6" stroke-width="1.26425"/>
<path opacity="0.4" d="M82.5977 4.64062V9.69761C83.615 9.26931 84.2766 8.27297 84.2766 7.16912C84.2766 6.06526 83.615 5.06892 82.5977 4.64062" fill="#EBEBF5" fill-opacity="0.6"/>
<rect x="56.0488" y="2.53125" width="22.7564" height="9.27114" rx="1.68566" fill="white"/>
<path d="M34.7012 10.6554C36.3202 9.28731 38.6915 9.28723 40.3106 10.6554C40.3918 10.729 40.4392 10.833 40.4414 10.9426C40.4436 11.0521 40.4005 11.1577 40.3223 11.2346L37.7871 13.7912C37.7129 13.8662 37.6115 13.9083 37.5059 13.9084C37.4003 13.9084 37.2989 13.8662 37.2246 13.7912L34.6885 11.2346C34.6103 11.1577 34.5671 11.0521 34.5693 10.9426C34.5717 10.8328 34.6197 10.729 34.7012 10.6554ZM31.3193 7.24432C34.8076 4.00237 40.209 4.00244 43.6973 7.24432C43.776 7.32034 43.8212 7.42495 43.8223 7.53436C43.8233 7.64364 43.7802 7.74882 43.7031 7.82635L42.2383 9.30584C42.0873 9.45693 41.8424 9.45976 41.6875 9.31268C40.5421 8.27654 39.052 7.70321 37.5068 7.7033C35.9627 7.70396 34.4738 8.27718 33.3291 9.31268C33.1742 9.4597 32.9304 9.45673 32.7793 9.30584L31.3135 7.82635C31.2362 7.74892 31.1934 7.64368 31.1943 7.53436C31.1954 7.42492 31.2405 7.32034 31.3193 7.24432ZM27.9356 3.84197C33.2856 -1.28075 41.726 -1.28057 47.0762 3.84197C47.1536 3.91808 47.1976 4.0225 47.1982 4.13104C47.1988 4.23952 47.1566 4.3441 47.0801 4.42107L45.6123 5.90057C45.4611 6.05211 45.2159 6.05387 45.0625 5.90447C43.0242 3.9683 40.3193 2.88807 37.5068 2.88787C34.694 2.88786 31.9879 3.96804 29.9492 5.90447C29.7958 6.05403 29.5505 6.05255 29.3994 5.90057L27.9316 4.42107C27.8552 4.34407 27.8128 4.23949 27.8135 4.13104C27.8142 4.0225 27.8581 3.91803 27.9356 3.84197Z" fill="white"/>
<path d="M2.52832 8.85156C3.22654 8.85156 3.79297 9.41799 3.79297 10.1162V12.6445C3.79285 13.3427 3.22647 13.9082 2.52832 13.9082H1.26465C0.5665 13.9082 0.000123552 13.3427 0 12.6445V10.1162C0 9.41799 0.566424 8.85156 1.26465 8.85156H2.52832ZM20.2285 0.421875C20.9266 0.422045 21.4922 0.988404 21.4922 1.68652V12.6426C21.4922 13.3407 20.9266 13.9071 20.2285 13.9072H18.9639C18.2657 13.9072 17.7002 13.3408 17.7002 12.6426V1.68652C17.7002 0.988328 18.2657 0.421922 18.9639 0.421875H20.2285ZM8.42773 6.32031C9.12596 6.32031 9.69238 6.88674 9.69238 7.58496V12.6416C9.69235 13.3398 9.12594 13.9062 8.42773 13.9062H7.16406C6.46586 13.9062 5.89944 13.3398 5.89941 12.6416V7.58496C5.89941 6.88674 6.46584 6.32031 7.16406 6.32031H8.42773ZM14.3291 3.37109C15.0273 3.37109 15.5938 3.93752 15.5938 4.63574V12.6426C15.5936 13.3406 15.0272 13.9062 14.3291 13.9062H13.0654C12.3673 13.9062 11.801 13.3406 11.8008 12.6426V4.63574C11.8008 3.93752 12.3672 3.37109 13.0654 3.37109H14.3291Z" fill="white"/>
</svg>
