<svg preserveAspectRatio="none" width="100%" height="100%" overflow="visible" style="display: block;" viewBox="0 0 18.6125 18.6125" fill="none" xmlns="http://www.w3.org/2000/svg">
<g id="container">
<g id="union">
<path d="M12.14 0C12.6077 0 12.9869 0.378778 12.9869 0.846024V17.7665C12.9869 18.2337 12.6077 18.6125 12.14 18.6125C11.6722 18.6125 11.293 18.2337 11.293 17.7665V0.846024C11.293 0.378778 11.6722 0 12.14 0Z" fill="var(--fill-0, #324919)"/>
<path d="M0.846974 2.82008C1.31475 2.82008 1.69395 3.19886 1.69395 3.6661V14.9464C1.69395 15.4137 1.31475 15.7924 0.846974 15.7924C0.379203 15.7924 0 15.4137 0 14.9464V3.6661C0 3.19886 0.379203 2.82008 0.846974 2.82008Z" fill="var(--fill-0, #324919)"/>
<path d="M4.6113 5.64016C5.07908 5.64016 5.45828 6.01894 5.45828 6.48618V12.1263C5.45828 12.5936 5.07908 12.9724 4.6113 12.9724C4.14353 12.9724 3.76433 12.5936 3.76433 12.1263V6.48618C3.76433 6.01894 4.14353 5.64016 4.6113 5.64016Z" fill="var(--fill-0, #324919)"/>
<path d="M9.22261 3.6661C9.22261 3.19886 8.84341 2.82008 8.37563 2.82008C7.90786 2.82008 7.52866 3.19886 7.52866 3.6661V14.9464C7.52866 15.4137 7.90786 15.7924 8.37563 15.7924C8.84341 15.7924 9.22261 15.4137 9.22261 14.9464V3.6661Z" fill="var(--fill-0, #324919)"/>
<path d="M16.7513 5.54616C16.7513 5.07891 16.3721 4.70013 15.9043 4.70013C15.4365 4.70013 15.0573 5.07891 15.0573 5.54616V13.0664C15.0573 13.5336 15.4365 13.9124 15.9043 13.9124C16.3721 13.9124 16.7513 13.5336 16.7513 13.0664V5.54616Z" fill="var(--fill-0, #324919)"/>
</g>
</g>
</svg>
