<svg preserveAspectRatio="none" width="100%" height="100%" overflow="visible" style="display: block;" viewBox="0 0 23.4504 23.4472" fill="none" xmlns="http://www.w3.org/2000/svg">
<path id="Vector" d="M23.3889 2.12494C23.3889 2.12494 23.3889 2.13541 23.3889 2.14064L17.2956 22.2359C17.2034 22.5623 17.0135 22.8526 16.7515 23.068C16.4895 23.2834 16.1679 23.4136 15.8299 23.4409C15.7817 23.4451 15.7335 23.4472 15.6854 23.4472C15.3686 23.4482 15.0581 23.3585 14.7906 23.1888C14.5231 23.019 14.3097 22.7763 14.1757 22.4892L10.3648 14.6685C10.3266 14.5901 10.3139 14.5018 10.3284 14.4158C10.3428 14.3299 10.3837 14.2506 10.4454 14.189L16.5093 8.12503C16.6598 7.96668 16.7424 7.75583 16.7396 7.53742C16.7368 7.31902 16.6488 7.11034 16.4944 6.9559C16.3399 6.80145 16.1312 6.71344 15.9128 6.71065C15.6944 6.70785 15.4836 6.79048 15.3252 6.94093L9.25813 13.0049C9.19654 13.0666 9.11723 13.1075 9.03128 13.1219C8.94532 13.1364 8.857 13.1236 8.77863 13.0855L0.950549 9.27564C0.64444 9.12878 0.390182 8.89237 0.221467 8.59775C0.0527531 8.30312 -0.0224519 7.96418 0.00581841 7.62584C0.0340887 7.28751 0.1645 6.96575 0.379769 6.70321C0.595039 6.44067 0.885004 6.24973 1.21124 6.15571L21.3065 0.0624379H21.3222C21.6083 -0.0179458 21.9107 -0.0207638 22.1982 0.0542729C22.4858 0.12931 22.7482 0.279499 22.9586 0.489433C23.1689 0.699366 23.3196 0.961485 23.3953 1.2489C23.4709 1.53631 23.4687 1.83866 23.3889 2.12494Z" fill="white"/>
</svg>
