<svg width="84" height="14" viewBox="0 0 84.2773 14.3301" fill="none" xmlns="http://www.w3.org/2000/svg">
<g id="Group">
<g id="Battery">
<rect id="Border" opacity="0.35" x="54.1527" y="0.634093" width="26.5492" height="13.0639" rx="2.7392" stroke="var(--stroke-0, #EBEBF5)" stroke-opacity="0.6" stroke-width="1.26425"/>
<path id="Cap" opacity="0.4" d="M82.5983 4.63765V9.69464C83.6157 9.26634 84.2773 8.27 84.2773 7.16614C84.2773 6.06229 83.6157 5.06595 82.5983 4.63765" fill="var(--fill-0, #EBEBF5)" fill-opacity="0.6"/>
<rect id="Capacity" x="56.0493" y="2.53065" width="22.7564" height="9.27114" rx="1.68566" fill="var(--fill-0, white)"/>
</g>
<path id="Wifi" d="M34.701 10.6538C36.3201 9.28576 38.6914 9.28563 40.3104 10.6538C40.3917 10.7274 40.439 10.8314 40.4413 10.9409C40.4435 11.0506 40.4005 11.157 40.3221 11.2339L37.787 13.7896C37.7127 13.8646 37.6113 13.9067 37.5057 13.9068C37.4001 13.9068 37.2988 13.8646 37.2245 13.7896L34.6883 11.2339C34.61 11.157 34.5669 11.0506 34.5692 10.9409C34.5715 10.8313 34.6195 10.7274 34.701 10.6538ZM31.3192 7.24367C34.8075 4.00164 40.2089 4.00165 43.6971 7.24367C43.7758 7.31963 43.8209 7.42344 43.8221 7.53274C43.8232 7.64212 43.7811 7.7481 43.704 7.8257L42.2381 9.3052C42.0872 9.45619 41.8433 9.45892 41.6883 9.31203C40.5428 8.27564 39.052 7.70159 37.5067 7.70168C35.9625 7.70236 34.4736 8.27644 33.329 9.31203C33.1742 9.45901 32.9302 9.45594 32.7792 9.3052L31.3133 7.8257C31.236 7.74821 31.1932 7.64217 31.1942 7.53274C31.1953 7.42351 31.2406 7.31959 31.3192 7.24367ZM27.9354 3.84231C33.2856 -1.28071 41.7268 -1.28071 47.077 3.84231C47.1542 3.91831 47.1974 4.0221 47.1981 4.13039C47.1987 4.23888 47.1564 4.34343 47.0799 4.42043L45.6122 5.89992C45.461 6.05165 45.2158 6.05422 45.0624 5.90481C43.024 3.96853 40.3193 2.88837 37.5067 2.8882C34.6938 2.8882 31.9887 3.9684 29.9501 5.90481C29.7967 6.05453 29.5504 6.05198 29.3993 5.89992L27.9315 4.42043C27.8552 4.34339 27.8126 4.2388 27.8133 4.13039C27.8141 4.02202 27.8581 3.91828 27.9354 3.84231Z" fill="var(--fill-0, white)"/>
<path id="Cellular Connection" d="M14.3291 3.37428C15.0273 3.37428 15.5937 3.9398 15.5938 4.63796V12.6448C15.5938 13.343 15.0273 13.9094 14.3291 13.9094H13.0654C12.3672 13.9094 11.8008 13.343 11.8008 12.6448V4.63796C11.8009 3.9398 12.3673 3.37428 13.0654 3.37428H14.3291ZM2.52832 8.85182C3.22648 8.85182 3.79286 9.41737 3.79297 10.1155V12.6438C3.79297 13.342 3.22654 13.9085 2.52832 13.9085H1.26465C0.566424 13.9085 0 13.342 0 12.6438V10.1155C0.000112196 9.41737 0.566493 8.85182 1.26465 8.85182H2.52832ZM8.42773 6.32253C9.12596 6.32253 9.69238 6.88895 9.69238 7.58717V12.6438C9.69238 13.342 9.12596 13.9085 8.42773 13.9085H7.16406C6.46584 13.9085 5.89941 13.342 5.89941 12.6438V7.58717C5.89941 6.88895 6.46584 6.32253 7.16406 6.32253H8.42773ZM20.2285 0.423112C20.9265 0.423356 21.4922 0.989687 21.4922 1.68776V12.6448C21.492 13.3427 20.9264 13.9082 20.2285 13.9085H18.9639C18.2657 13.9085 17.6994 13.3429 17.6992 12.6448V1.68776C17.6992 0.989536 18.2656 0.423112 18.9639 0.423112H20.2285Z" fill="var(--fill-0, white)"/>
</g>
</svg>
